%TF.GenerationSoftware,KiCad,Pcbnew,10.0.1*%
%TF.CreationDate,2026-08-01T19:56:57+05:30*%
%TF.ProjectId,Blinky Board,426c696e-6b79-4204-926f-6172642e6b69,rev?*%
%TF.SameCoordinates,Original*%
%TF.FileFunction,Copper,L2,Bot*%
%TF.FilePolarity,Positive*%
%FSLAX46Y46*%
G04 Gerber Fmt 4.6, Leading zero omitted, Abs format (unit mm)*
G04 Created by KiCad (PCBNEW 10.0.1) date 2026-08-01 19:56:57*
%MOMM*%
%LPD*%
G01*
G04 APERTURE LIST*
G04 Aperture macros list*
%AMRoundRect*
0 Rectangle with rounded corners*
0 $1 Rounding radius*
0 $2 $3 $4 $5 $6 $7 $8 $9 X,Y pos of 4 corners*
0 Add a 4 corners polygon primitive as box body*
4,1,4,$2,$3,$4,$5,$6,$7,$8,$9,$2,$3,0*
0 Add four circle primitives for the rounded corners*
1,1,$1+$1,$2,$3*
1,1,$1+$1,$4,$5*
1,1,$1+$1,$6,$7*
1,1,$1+$1,$8,$9*
0 Add four rect primitives between the rounded corners*
20,1,$1+$1,$2,$3,$4,$5,0*
20,1,$1+$1,$4,$5,$6,$7,0*
20,1,$1+$1,$6,$7,$8,$9,0*
20,1,$1+$1,$8,$9,$2,$3,0*%
G04 Aperture macros list end*
%TA.AperFunction,ComponentPad*%
%ADD10R,1.800000X1.800000*%
%TD*%
%TA.AperFunction,ComponentPad*%
%ADD11C,1.800000*%
%TD*%
%TA.AperFunction,ComponentPad*%
%ADD12C,1.600000*%
%TD*%
%TA.AperFunction,ComponentPad*%
%ADD13R,1.700000X1.700000*%
%TD*%
%TA.AperFunction,ComponentPad*%
%ADD14C,1.700000*%
%TD*%
%TA.AperFunction,ComponentPad*%
%ADD15RoundRect,0.250000X-0.550000X0.550000X-0.550000X-0.550000X0.550000X-0.550000X0.550000X0.550000X0*%
%TD*%
%TA.AperFunction,ComponentPad*%
%ADD16RoundRect,0.250000X-0.550000X-0.550000X0.550000X-0.550000X0.550000X0.550000X-0.550000X0.550000X0*%
%TD*%
%TA.AperFunction,ComponentPad*%
%ADD17RoundRect,0.412500X-0.412500X-0.412500X0.412500X-0.412500X0.412500X0.412500X-0.412500X0.412500X0*%
%TD*%
%TA.AperFunction,ComponentPad*%
%ADD18C,1.650000*%
%TD*%
%TA.AperFunction,ComponentPad*%
%ADD19C,2.000000*%
%TD*%
%TA.AperFunction,ViaPad*%
%ADD20C,0.600000*%
%TD*%
%TA.AperFunction,Conductor*%
%ADD21C,0.200000*%
%TD*%
G04 APERTURE END LIST*
D10*
%TO.P,D10,1,K_1*%
%TO.N,Net-(D1-K)*%
X200960000Y-132000000D03*
D11*
%TO.P,D10,2,A_2*%
%TO.N,Net-(D10-A)*%
X203500000Y-132000000D03*
%TD*%
D12*
%TO.P,R3,1*%
%TO.N,+5V*%
X183500000Y-113810000D03*
%TO.P,R3,2*%
%TO.N,Net-(U1-DISCH)*%
X183500000Y-106190000D03*
%TD*%
D13*
%TO.P,J1,1,Pin_1_1*%
%TO.N,+5V*%
X180000000Y-131725000D03*
D14*
%TO.P,J1,2,Pin_2_2*%
%TO.N,GND*%
X180000000Y-134265000D03*
%TD*%
D10*
%TO.P,D7,1,K_1*%
%TO.N,Net-(D1-K)*%
X200960000Y-102000000D03*
D11*
%TO.P,D7,2,A_2*%
%TO.N,Net-(D7-A)*%
X203500000Y-102000000D03*
%TD*%
D15*
%TO.P,U1,1,GND_1*%
%TO.N,GND*%
X188810000Y-91190000D03*
D12*
%TO.P,U1,2,TRIG_2*%
%TO.N,TR*%
X186270000Y-91190000D03*
%TO.P,U1,3,OUT_3*%
%TO.N,OUT*%
X183730000Y-91190000D03*
%TO.P,U1,4,~{RST}_4*%
%TO.N,+5V*%
X181190000Y-91190000D03*
%TO.P,U1,5,CONT_5*%
%TO.N,Net-(U1-CONT)*%
X181190000Y-98810000D03*
%TO.P,U1,6,THRES_6*%
%TO.N,TR*%
X183730000Y-98810000D03*
%TO.P,U1,7,DISCH_7*%
%TO.N,Net-(U1-DISCH)*%
X186270000Y-98810000D03*
%TO.P,U1,8,VCC_8*%
%TO.N,+5V*%
X188810000Y-98810000D03*
%TD*%
D10*
%TO.P,D2,1,K_1*%
%TO.N,Net-(D1-K)*%
X166230000Y-102000000D03*
D11*
%TO.P,D2,2,A_2*%
%TO.N,Net-(D2-A)*%
X168770000Y-102000000D03*
%TD*%
D16*
%TO.P,C1,1*%
%TO.N,TR*%
X189500000Y-122500000D03*
D12*
%TO.P,C1,2*%
%TO.N,GND*%
X191500000Y-122500000D03*
%TD*%
D13*
%TO.P,J2,1,Pin_1_1*%
%TO.N,OUT*%
X185500000Y-131725000D03*
D14*
%TO.P,J2,2*%
%TO.N,N/C*%
X185500000Y-134265000D03*
%TD*%
D15*
%TO.P,U2,1,Q5_1*%
%TO.N,Net-(D5-A)*%
X193890000Y-75695000D03*
D12*
%TO.P,U2,2,Q1_2*%
%TO.N,Net-(D9-A)*%
X191350000Y-75695000D03*
%TO.P,U2,3,Q0_3*%
%TO.N,Net-(D10-A)*%
X188810000Y-75695000D03*
%TO.P,U2,4,Q2_4*%
%TO.N,Net-(D8-A)*%
X186270000Y-75695000D03*
%TO.P,U2,5,Q6_5*%
%TO.N,Net-(D4-A)*%
X183730000Y-75695000D03*
%TO.P,U2,6,Q7_6*%
%TO.N,Net-(D3-A)*%
X181190000Y-75695000D03*
%TO.P,U2,7,Q3_7*%
%TO.N,Net-(D7-A)*%
X178650000Y-75695000D03*
%TO.P,U2,8,VSS_8*%
%TO.N,GND*%
X176110000Y-75695000D03*
%TO.P,U2,9,Q8_9*%
%TO.N,Net-(D2-A)*%
X176110000Y-83315000D03*
%TO.P,U2,10,Q4_10*%
%TO.N,Net-(D6-A)*%
X178650000Y-83315000D03*
%TO.P,U2,11,Q9_11*%
%TO.N,Net-(D1-A)*%
X181190000Y-83315000D03*
%TO.P,U2,12,Cout_12*%
%TO.N,unconnected-(U2-Cout-Pad12)*%
X183730000Y-83315000D03*
%TO.P,U2,13,CKEN_13*%
%TO.N,GND*%
X186270000Y-83315000D03*
%TO.P,U2,14,CLK_14*%
%TO.N,OUT*%
X188810000Y-83315000D03*
%TO.P,U2,15,Reset_15*%
%TO.N,GND*%
X191350000Y-83315000D03*
%TO.P,U2,16,VDD_16*%
%TO.N,+5V*%
X193890000Y-83315000D03*
%TD*%
D10*
%TO.P,D1,1,K_1*%
%TO.N,Net-(D1-K)*%
X166230000Y-92000000D03*
D11*
%TO.P,D1,2,A_2*%
%TO.N,Net-(D1-A)*%
X168770000Y-92000000D03*
%TD*%
D10*
%TO.P,D8,1,K_1*%
%TO.N,Net-(D1-K)*%
X200960000Y-112000000D03*
D11*
%TO.P,D8,2,A_2*%
%TO.N,Net-(D8-A)*%
X203500000Y-112000000D03*
%TD*%
D10*
%TO.P,D4,1,K_1*%
%TO.N,Net-(D1-K)*%
X166230000Y-122000000D03*
D11*
%TO.P,D4,2,A_2*%
%TO.N,Net-(D4-A)*%
X168770000Y-122000000D03*
%TD*%
D10*
%TO.P,D3,1,K_1*%
%TO.N,Net-(D1-K)*%
X166230000Y-112000000D03*
D11*
%TO.P,D3,2,A_2*%
%TO.N,Net-(D3-A)*%
X168770000Y-112000000D03*
%TD*%
D17*
%TO.P,RV2,1,1_1*%
%TO.N,Net-(U1-DISCH)*%
X176920000Y-122500000D03*
D18*
%TO.P,RV2,2,2_2*%
X179460000Y-122500000D03*
%TO.P,RV2,3,3_3*%
%TO.N,TR*%
X182000000Y-122500000D03*
%TD*%
D12*
%TO.P,R1,1*%
%TO.N,Net-(D1-K)*%
X176500000Y-113810000D03*
%TO.P,R1,2*%
%TO.N,GND*%
X176500000Y-106190000D03*
%TD*%
D10*
%TO.P,D9,1,K_1*%
%TO.N,Net-(D1-K)*%
X200960000Y-122000000D03*
D11*
%TO.P,D9,2,A_2*%
%TO.N,Net-(D9-A)*%
X203500000Y-122000000D03*
%TD*%
D19*
%TO.P,C2,1*%
%TO.N,GND*%
X191000000Y-112500000D03*
%TO.P,C2,2*%
%TO.N,Net-(U1-CONT)*%
X191000000Y-107500000D03*
%TD*%
D10*
%TO.P,D5,1,K_1*%
%TO.N,Net-(D1-K)*%
X166230000Y-132000000D03*
D11*
%TO.P,D5,2,A_2*%
%TO.N,Net-(D5-A)*%
X168770000Y-132000000D03*
%TD*%
D10*
%TO.P,D6,1,K_1*%
%TO.N,Net-(D1-K)*%
X200960000Y-92000000D03*
D11*
%TO.P,D6,2,A_2*%
%TO.N,Net-(D6-A)*%
X203500000Y-92000000D03*
%TD*%
D20*
%TO.N,Net-(D1-K)*%
X173000000Y-131400000D03*
X170570000Y-115500000D03*
%TO.N,+5V*%
X185500000Y-123100000D03*
X187500000Y-106000000D03*
X188000000Y-96100000D03*
X187674265Y-93174265D03*
%TO.N,Net-(U1-DISCH)*%
X185500000Y-104000000D03*
%TO.N,GND*%
X186674265Y-107674265D03*
X184000000Y-102500000D03*
X180350000Y-79000000D03*
X184500000Y-82100000D03*
X188210000Y-85500000D03*
X183230000Y-79000000D03*
X191276765Y-86776765D03*
%TO.N,Net-(D7-A)*%
X186870000Y-73100000D03*
X191950000Y-73298438D03*
%TO.N,TR*%
X180769265Y-109769265D03*
%TO.N,OUT*%
X185000000Y-90690000D03*
X186870000Y-95500000D03*
X185500000Y-95500000D03*
%TO.N,Net-(D8-A)*%
X192000000Y-72500000D03*
%TO.N,Net-(D3-A)*%
X169370000Y-107500000D03*
%TO.N,Net-(D6-A)*%
X197600000Y-81500000D03*
X180350000Y-81500000D03*
%TO.N,Net-(D1-A)*%
X179150000Y-86500000D03*
X175500000Y-87500000D03*
%TD*%
%TO.N,Net-(D1-K)*%
D21*
X169730000Y-115500000D02*
X166230000Y-112000000D01*
X173000000Y-131400000D02*
X174475000Y-132875000D01*
X174475000Y-132875000D02*
X200085000Y-132875000D01*
X170570000Y-115500000D02*
X169730000Y-115500000D01*
X200085000Y-132875000D02*
X200960000Y-132000000D01*
%TO.N,+5V*%
X188000000Y-96100000D02*
X187500000Y-95600000D01*
X183500000Y-118000000D02*
X183500000Y-113810000D01*
X185500000Y-120000000D02*
X183500000Y-118000000D01*
X188810000Y-104690000D02*
X188810000Y-98810000D01*
X185500000Y-123100000D02*
X185500000Y-120000000D01*
X187500000Y-95600000D02*
X187500000Y-93348530D01*
X187500000Y-106000000D02*
X188810000Y-104690000D01*
X187500000Y-93348530D02*
X187674265Y-93174265D01*
%TO.N,Net-(U1-DISCH)*%
X186270000Y-103230000D02*
X186270000Y-98810000D01*
X185500000Y-104000000D02*
X186270000Y-103230000D01*
%TO.N,GND*%
X184000000Y-105000000D02*
X184000000Y-102500000D01*
X186674265Y-107674265D02*
X184000000Y-105000000D01*
X186270000Y-83315000D02*
X185055000Y-82100000D01*
X183230000Y-79000000D02*
X180350000Y-79000000D01*
X191276765Y-86776765D02*
X191350000Y-86703530D01*
X191350000Y-86703530D02*
X191350000Y-83315000D01*
X186270000Y-83315000D02*
X188210000Y-85255000D01*
X184000000Y-102500000D02*
X184830000Y-101670000D01*
X184830000Y-95170000D02*
X188810000Y-91190000D01*
X188210000Y-85255000D02*
X188210000Y-85500000D01*
X184830000Y-101670000D02*
X184830000Y-95170000D01*
X185055000Y-82100000D02*
X184500000Y-82100000D01*
%TO.N,Net-(D7-A)*%
X187068438Y-73298438D02*
X186870000Y-73100000D01*
X191950000Y-73298438D02*
X187068438Y-73298438D01*
%TO.N,TR*%
X180769265Y-109769265D02*
X180769265Y-101770735D01*
X180769265Y-101770735D02*
X183730000Y-98810000D01*
%TO.N,OUT*%
X185000000Y-90690000D02*
X188810000Y-86880000D01*
X188810000Y-86880000D02*
X188810000Y-83315000D01*
X186870000Y-95500000D02*
X185500000Y-95500000D01*
%TO.N,Net-(D8-A)*%
X186270000Y-72270000D02*
X186270000Y-75695000D01*
X192000000Y-72500000D02*
X186500000Y-72500000D01*
X186500000Y-72500000D02*
X186270000Y-72270000D01*
%TO.N,Net-(D3-A)*%
X179750000Y-77135000D02*
X181190000Y-75695000D01*
X179750000Y-97120000D02*
X179750000Y-77135000D01*
X169370000Y-107500000D02*
X179750000Y-97120000D01*
%TO.N,Net-(D6-A)*%
X197600000Y-81500000D02*
X180350000Y-81500000D01*
%TO.N,Net-(D1-A)*%
X175500000Y-87500000D02*
X176500000Y-86500000D01*
X176500000Y-86500000D02*
X179150000Y-86500000D01*
%TD*%
M02*
