%TF.GenerationSoftware,KiCad,Pcbnew,10.0.1*%
%TF.CreationDate,2026-08-01T19:56:57+05:30*%
%TF.ProjectId,Blinky Board,426c696e-6b79-4204-926f-6172642e6b69,rev?*%
%TF.SameCoordinates,Original*%
%TF.FileFunction,Soldermask,Top*%
%TF.FilePolarity,Negative*%
%FSLAX46Y46*%
G04 Gerber Fmt 4.6, Leading zero omitted, Abs format (unit mm)*
G04 Created by KiCad (PCBNEW 10.0.1) date 2026-08-01 19:56:57*
%MOMM*%
%LPD*%
G01*
G04 APERTURE LIST*
G04 Aperture macros list*
%AMRoundRect*
0 Rectangle with rounded corners*
0 $1 Rounding radius*
0 $2 $3 $4 $5 $6 $7 $8 $9 X,Y pos of 4 corners*
0 Add a 4 corners polygon primitive as box body*
4,1,4,$2,$3,$4,$5,$6,$7,$8,$9,$2,$3,0*
0 Add four circle primitives for the rounded corners*
1,1,$1+$1,$2,$3*
1,1,$1+$1,$4,$5*
1,1,$1+$1,$6,$7*
1,1,$1+$1,$8,$9*
0 Add four rect primitives between the rounded corners*
20,1,$1+$1,$2,$3,$4,$5,0*
20,1,$1+$1,$4,$5,$6,$7,0*
20,1,$1+$1,$6,$7,$8,$9,0*
20,1,$1+$1,$8,$9,$2,$3,0*%
G04 Aperture macros list end*
%ADD10R,1.800000X1.800000*%
%ADD11C,1.800000*%
%ADD12C,1.600000*%
%ADD13R,1.700000X1.700000*%
%ADD14C,1.700000*%
%ADD15RoundRect,0.250000X-0.550000X0.550000X-0.550000X-0.550000X0.550000X-0.550000X0.550000X0.550000X0*%
%ADD16RoundRect,0.250000X-0.550000X-0.550000X0.550000X-0.550000X0.550000X0.550000X-0.550000X0.550000X0*%
%ADD17RoundRect,0.412500X-0.412500X-0.412500X0.412500X-0.412500X0.412500X0.412500X-0.412500X0.412500X0*%
%ADD18C,1.650000*%
%ADD19C,2.000000*%
G04 APERTURE END LIST*
D10*
%TO.C,D10*%
X200960000Y-132000000D03*
D11*
X203500000Y-132000000D03*
%TD*%
D12*
%TO.C,R3*%
X183500000Y-113810000D03*
X183500000Y-106190000D03*
%TD*%
D13*
%TO.C,J1*%
X180000000Y-131725000D03*
D14*
X180000000Y-134265000D03*
%TD*%
D10*
%TO.C,D7*%
X200960000Y-102000000D03*
D11*
X203500000Y-102000000D03*
%TD*%
D15*
%TO.C,U1*%
X188810000Y-91190000D03*
D12*
X186270000Y-91190000D03*
X183730000Y-91190000D03*
X181190000Y-91190000D03*
X181190000Y-98810000D03*
X183730000Y-98810000D03*
X186270000Y-98810000D03*
X188810000Y-98810000D03*
%TD*%
D10*
%TO.C,D2*%
X166230000Y-102000000D03*
D11*
X168770000Y-102000000D03*
%TD*%
D16*
%TO.C,C1*%
X189500000Y-122500000D03*
D12*
X191500000Y-122500000D03*
%TD*%
D13*
%TO.C,J2*%
X185500000Y-131725000D03*
D14*
X185500000Y-134265000D03*
%TD*%
D15*
%TO.C,U2*%
X193890000Y-75695000D03*
D12*
X191350000Y-75695000D03*
X188810000Y-75695000D03*
X186270000Y-75695000D03*
X183730000Y-75695000D03*
X181190000Y-75695000D03*
X178650000Y-75695000D03*
X176110000Y-75695000D03*
X176110000Y-83315000D03*
X178650000Y-83315000D03*
X181190000Y-83315000D03*
X183730000Y-83315000D03*
X186270000Y-83315000D03*
X188810000Y-83315000D03*
X191350000Y-83315000D03*
X193890000Y-83315000D03*
%TD*%
D10*
%TO.C,D1*%
X166230000Y-92000000D03*
D11*
X168770000Y-92000000D03*
%TD*%
D10*
%TO.C,D8*%
X200960000Y-112000000D03*
D11*
X203500000Y-112000000D03*
%TD*%
D10*
%TO.C,D4*%
X166230000Y-122000000D03*
D11*
X168770000Y-122000000D03*
%TD*%
D10*
%TO.C,D3*%
X166230000Y-112000000D03*
D11*
X168770000Y-112000000D03*
%TD*%
D17*
%TO.C,RV2*%
X176920000Y-122500000D03*
D18*
X179460000Y-122500000D03*
X182000000Y-122500000D03*
%TD*%
D12*
%TO.C,R1*%
X176500000Y-113810000D03*
X176500000Y-106190000D03*
%TD*%
D10*
%TO.C,D9*%
X200960000Y-122000000D03*
D11*
X203500000Y-122000000D03*
%TD*%
D19*
%TO.C,C2*%
X191000000Y-112500000D03*
X191000000Y-107500000D03*
%TD*%
D10*
%TO.C,D5*%
X166230000Y-132000000D03*
D11*
X168770000Y-132000000D03*
%TD*%
D10*
%TO.C,D6*%
X200960000Y-92000000D03*
D11*
X203500000Y-92000000D03*
%TD*%
M02*
