M48
; DRILL file KiCad 10.0.1 date 2026-08-01T19:57:07
; FORMAT={-:-/ absolute / metric / decimal}
; #@! TF.CreationDate,2026-08-01T19:57:07+05:30
; #@! TF.GenerationSoftware,Kicad,Pcbnew,10.0.1
; #@! TF.FileFunction,Plated,1,2,PTH
FMAT,2
METRIC
; #@! TA.AperFunction,Plated,PTH,ViaDrill
T1C0.300
; #@! TA.AperFunction,Plated,PTH,ComponentDrill
T2C0.800
; #@! TA.AperFunction,Plated,PTH,ComponentDrill
T3C0.850
; #@! TA.AperFunction,Plated,PTH,ComponentDrill
T4C0.900
; #@! TA.AperFunction,Plated,PTH,ComponentDrill
T5C1.000
%
G90
G05
T1
X169.37Y-107.5
X170.57Y-115.5
X173.0Y-131.4
X175.5Y-87.5
X179.15Y-86.5
X180.35Y-79.0
X180.35Y-81.5
X180.769Y-109.769
X183.23Y-79.0
X184.0Y-102.5
X184.5Y-82.1
X185.0Y-90.69
X185.5Y-95.5
X185.5Y-104.0
X185.5Y-123.1
X186.674Y-107.674
X186.87Y-73.1
X186.87Y-95.5
X187.5Y-106.0
X187.674Y-93.174
X188.0Y-96.1
X188.21Y-85.5
X191.277Y-86.777
X191.95Y-73.298
X192.0Y-72.5
X197.6Y-81.5
T2
X176.11Y-75.695
X176.11Y-83.315
X176.5Y-106.19
X176.5Y-113.81
X178.65Y-75.695
X178.65Y-83.315
X181.19Y-75.695
X181.19Y-83.315
X181.19Y-91.19
X181.19Y-98.81
X183.5Y-106.19
X183.5Y-113.81
X183.73Y-75.695
X183.73Y-83.315
X183.73Y-91.19
X183.73Y-98.81
X186.27Y-75.695
X186.27Y-83.315
X186.27Y-91.19
X186.27Y-98.81
X188.81Y-75.695
X188.81Y-83.315
X188.81Y-91.19
X188.81Y-98.81
X189.5Y-122.5
X191.35Y-75.695
X191.35Y-83.315
X191.5Y-122.5
X193.89Y-75.695
X193.89Y-83.315
T3
X176.92Y-122.5
X179.46Y-122.5
X182.0Y-122.5
T4
X166.23Y-92.0
X166.23Y-102.0
X166.23Y-112.0
X166.23Y-122.0
X166.23Y-132.0
X168.77Y-92.0
X168.77Y-102.0
X168.77Y-112.0
X168.77Y-122.0
X168.77Y-132.0
X200.96Y-92.0
X200.96Y-102.0
X200.96Y-112.0
X200.96Y-122.0
X200.96Y-132.0
X203.5Y-92.0
X203.5Y-102.0
X203.5Y-112.0
X203.5Y-122.0
X203.5Y-132.0
T5
X180.0Y-131.725
X180.0Y-134.265
X185.5Y-131.725
X185.5Y-134.265
X191.0Y-107.5
X191.0Y-112.5
M30
